<?xml version="1.0" encoding="utf-8"?>
<!-- Svg Vector Icons : http://www.onlinewebfonts.com/icon -->
<!DOCTYPE svg PUBLIC "-//W3C//DTD SVG 1.1//EN" "http://www.w3.org/Graphics/SVG/1.1/DTD/svg11.dtd">
<svg version="1.1" xmlns="http://www.w3.org/2000/svg" xmlns:xlink="http://www.w3.org/1999/xlink" x="0px" y="0px" viewBox="0 0 1000 1000" enable-background="new 0 0 1000 1000" xml:space="preserve">
<metadata> Svg Vector Icons : http://www.onlinewebfonts.com/icon </metadata>
<g><g transform="translate(0.000000,511.000000) scale(0.100000,-0.100000)"><path d="M709.2,4997.2c-123.9-30-305.8-135.9-393.7-231.8c-44-48-109.9-147.9-143.9-221.8l-64-133.9l-6-4256.7c-4-4202.7-4-4258.6,36-4386.6c72-237.8,279.8-445.6,517.6-519.6c123.9-40,193.8-40,4346.6-40c3797,0,4232.7,4,4330.6,32c223.8,66,397.7,217.8,505.6,445.7l61.9,131.9V113v4296.6l-64,133.9c-87.9,185.8-199.8,301.8-381.7,391.7l-151.9,73.9l-4256.6,4C2519.8,5013.1,755.2,5007.1,709.2,4997.2z M9186.6,4621.4c141.9-77.9,275.8-213.8,345.7-355.7l48-95.9V113v-4056.8l-56-109.9c-73.9-143.9-209.8-281.8-351.7-351.7l-111.9-57.9H5003.8H947l-95.9,48c-141.9,69.9-277.8,203.8-355.7,345.7l-67.9,125.9L421.4,77l-4,4020.8l42,111.9c75.9,205.8,221.8,355.7,429.7,439.7l117.9,50l4026.8-6l4026.8-4L9186.6,4621.4z"/><path d="M2657.7,1945.6c-79.9-42-141.9-145.9-141.9-233.8s62-191.9,141.9-233.8c63.9-34,177.9-36,2346.2-36c2168.3,0,2282.2,2,2346.2,36c187.8,101.9,181.8,379.7-12,473.6c-54,26-333.8,30-2338.2,30C2835.5,1981.5,2721.6,1979.5,2657.7,1945.6z"/><path d="M2657.7,346.8c-79.9-42-141.9-145.9-141.9-233.8c0-87.9,62-191.9,141.9-233.8c65.9-34,167.9-36,2370.1-32l2304.2,6l71.9,72c131.9,131.9,105.9,335.7-53.9,421.7c-64,34-177.9,36-2346.2,36C2835.5,382.8,2721.6,380.8,2657.7,346.8z"/><path d="M2657.7-1251.9c-79.9-42-141.9-145.9-141.9-233.8c0-87.9,62-191.9,141.9-233.8c63.9-34,177.9-36,2342.2-36c1914.5,0,2282.2,4,2328.2,28c201.9,105.9,215.8,371.7,22,475.6c-64,34-177.9,36-2346.2,36C2835.5-1216,2721.6-1218,2657.7-1251.9z"/></g></g>
</svg>